<?xml version="1.0" encoding="UTF-8"?>
<!DOCTYPE svg PUBLIC "-//W3C//DTD SVG 1.1//EN" "http://www.w3.org/Graphics/SVG/1.1/DTD/svg11.dtd">
<svg xmlns="http://www.w3.org/2000/svg" version="1.1" width="256px" height="256px" style="shape-rendering:geometricPrecision; text-rendering:geometricPrecision; image-rendering:optimizeQuality; fill-rule:evenodd; clip-rule:evenodd" xmlns:xlink="http://www.w3.org/1999/xlink">
<g><path style="opacity:0.976" fill="#fefffe" d="M 255.5,177.5 C 255.5,180.5 255.5,183.5 255.5,186.5C 234.599,208.418 208.932,219.585 178.5,220C 175.623,215.745 172.623,211.578 169.5,207.5C 185.257,201.793 199.257,193.293 211.5,182C 204.523,184.985 197.523,188.318 190.5,192C 148.5,207.333 106.5,207.333 64.5,192C 37.9186,177.116 36.9186,178.45 61.5,196C 69.1739,200.503 77.1739,204.336 85.5,207.5C 82.3775,211.578 79.3775,215.745 76.5,220C 46.0681,219.585 20.4015,208.418 -0.5,186.5C -0.5,183.5 -0.5,180.5 -0.5,177.5C 2.24561,145.29 9.41227,113.957 21,83.5C 24.8061,74.5545 29.1394,65.8878 34,57.5C 50.6808,45.1646 69.3475,37.498 90,34.5C 91.4357,34.5589 92.769,34.8922 94,35.5C 94.7065,37.0806 95.5399,38.5806 96.5,40C 78.5995,44.2836 62.5995,52.2836 48.5,64C 101.167,39.3333 153.833,39.3333 206.5,64C 192.883,52.3588 177.216,44.6921 159.5,41C 159.167,40.6667 158.833,40.3333 158.5,40C 159.46,38.5806 160.293,37.0806 161,35.5C 172.234,35.0107 183.067,37.1774 193.5,42C 202.952,46.2249 211.952,51.2249 220.5,57C 235.08,82.7351 244.913,110.235 250,139.5C 252.173,152.266 254.006,164.932 255.5,177.5 Z M 85.5,116.5 C 103.198,117.375 111.031,126.708 109,144.5C 102.528,162.213 91.528,165.88 76,155.5C 67.4442,142.03 68.9442,129.863 80.5,119C 82.3146,118.243 83.9812,117.41 85.5,116.5 Z M 161.5,116.5 C 179.163,118.019 186.663,127.686 184,145.5C 178.701,160.57 168.868,164.736 154.5,158C 142.5,145.333 142.5,132.667 154.5,120C 156.925,118.787 159.259,117.621 161.5,116.5 Z"/></g>
</svg>
