<?xml version="1.0" encoding="UTF-8"?>
<!DOCTYPE svg PUBLIC "-//W3C//DTD SVG 1.1//EN" "http://www.w3.org/Graphics/SVG/1.1/DTD/svg11.dtd">
<svg xmlns="http://www.w3.org/2000/svg" version="1.1" width="256px" height="256px" style="shape-rendering:geometricPrecision; text-rendering:geometricPrecision; image-rendering:optimizeQuality; fill-rule:evenodd; clip-rule:evenodd" xmlns:xlink="http://www.w3.org/1999/xlink">
<g><path style="opacity:0.974" fill="#fefffe" d="M 139.5,-0.5 C 155.5,-0.5 171.5,-0.5 187.5,-0.5C 187.5,14.8333 187.5,30.1667 187.5,45.5C 175.424,45.0625 163.424,45.5625 151.5,47C 150.299,47.9025 149.465,49.0692 149,50.5C 148.246,61.1576 147.746,71.8243 147.5,82.5C 160.833,82.5 174.167,82.5 187.5,82.5C 186.67,97.3056 185.004,111.972 182.5,126.5C 170.884,127.479 159.218,127.812 147.5,127.5C 147.5,170.167 147.5,212.833 147.5,255.5C 129.833,255.5 112.167,255.5 94.5,255.5C 94.5,212.833 94.5,170.167 94.5,127.5C 85.8333,127.5 77.1667,127.5 68.5,127.5C 68.5,112.5 68.5,97.5 68.5,82.5C 77.1667,82.5 85.8333,82.5 94.5,82.5C 94.163,67.1334 94.663,51.8001 96,36.5C 98.6581,19.5088 108.158,8.34217 124.5,3C 129.596,1.64036 134.596,0.473697 139.5,-0.5 Z"/></g>
</svg>
