<?xml version="1.0" encoding="UTF-8"?>
<!DOCTYPE svg PUBLIC "-//W3C//DTD SVG 1.1//EN" "http://www.w3.org/Graphics/SVG/1.1/DTD/svg11.dtd">
<svg xmlns="http://www.w3.org/2000/svg" version="1.1" width="256px" height="256px" style="shape-rendering:geometricPrecision; text-rendering:geometricPrecision; image-rendering:optimizeQuality; fill-rule:evenodd; clip-rule:evenodd" xmlns:xlink="http://www.w3.org/1999/xlink">
<g><path style="opacity:0.973" fill="#fefffe" d="M 255.5,42.5 C 255.5,99.5 255.5,156.5 255.5,213.5C 251.506,235.829 238.506,249.829 216.5,255.5C 157.167,255.5 97.8333,255.5 38.5,255.5C 15.1341,249.468 2.13408,234.468 -0.5,210.5C -0.5,155.5 -0.5,100.5 -0.5,45.5C 1.79873,22.0203 14.4654,7.18695 37.5,1C 97.5,0.333333 157.5,0.333333 217.5,1C 239.112,6.77381 251.779,20.6071 255.5,42.5 Z M 44.5,20.5 C 101.525,20.0328 158.525,20.5328 215.5,22C 224.759,25.5915 230.925,32.0915 234,41.5C 234.58,57.1664 235.08,72.8331 235.5,88.5C 222.496,88.6666 209.496,88.4999 196.5,88C 174.399,55.4069 144.065,43.4069 105.5,52C 85.6386,58.0352 70.3053,69.8685 59.5,87.5C 46.1833,88.4992 32.85,88.8325 19.5,88.5C 20.1236,73.1747 20.6236,57.8414 21,42.5C 24.5313,30.4658 32.3646,23.1325 44.5,20.5 Z M 117.5,70.5 C 154.597,68.4542 177.097,85.4542 185,121.5C 186.344,151.31 173.177,171.81 145.5,183C 114.285,190.472 90.7847,180.305 75,152.5C 63.7878,122.5 70.9545,97.9999 96.5,79C 103.187,75.0569 110.187,72.2235 117.5,70.5 Z"/></g>
<g><path style="opacity:0.936" fill="#fefffe" d="M 192.5,29.5 C 201.506,29.3336 210.506,29.5002 219.5,30C 223,30.8333 225.167,33 226,36.5C 226.667,45.1667 226.667,53.8333 226,62.5C 225.167,66 223,68.1667 219.5,69C 210.5,69.6667 201.5,69.6667 192.5,69C 189,68.1667 186.833,66 186,62.5C 185.333,53.8333 185.333,45.1667 186,36.5C 187.356,33.3142 189.522,30.9809 192.5,29.5 Z"/></g>
<g><path style="opacity:0.932" fill="#fefffe" d="M 118.5,90.5 C 140.422,87.7021 155.588,96.3688 164,116.5C 168.105,132.336 164.272,145.836 152.5,157C 138.649,166.734 123.982,168.067 108.5,161C 89.5743,147.611 85.0743,130.445 95,109.5C 95.7247,126.242 104.225,133.409 120.5,131C 131.479,124.857 134.313,116.024 129,104.5C 124.015,98.3333 117.515,95.3333 109.5,95.5C 112.221,93.2658 115.221,91.5991 118.5,90.5 Z"/></g>
</svg>
