<?xml version="1.0" encoding="UTF-8"?>
<!DOCTYPE svg PUBLIC "-//W3C//DTD SVG 1.1//EN" "http://www.w3.org/Graphics/SVG/1.1/DTD/svg11.dtd">
<svg xmlns="http://www.w3.org/2000/svg" version="1.1" width="256px" height="256px" style="shape-rendering:geometricPrecision; text-rendering:geometricPrecision; image-rendering:optimizeQuality; fill-rule:evenodd; clip-rule:evenodd" xmlns:xlink="http://www.w3.org/1999/xlink">
<g><path style="opacity:0.977" fill="#fefffe" d="M 119.5,-0.5 C 124.833,-0.5 130.167,-0.5 135.5,-0.5C 187.19,5.01915 224.023,31.3525 246,78.5C 250.609,90.6066 253.776,102.94 255.5,115.5C 255.5,123.5 255.5,131.5 255.5,139.5C 248.468,191.377 220.801,227.544 172.5,248C 162.575,251.345 152.575,253.845 142.5,255.5C 132.5,255.5 122.5,255.5 112.5,255.5C 57.7272,246.343 21.5606,215.343 4,162.5C 2.26571,154.737 0.765707,147.071 -0.5,139.5C -0.5,131.5 -0.5,123.5 -0.5,115.5C 8.52508,56.971 41.5251,19.471 98.5,3C 105.608,1.59316 112.608,0.426492 119.5,-0.5 Z M 91.5,67.5 C 129.159,65.3322 165.492,71.1656 200.5,85C 205.659,87.4121 210.659,90.0788 215.5,93C 222.333,100.009 222,106.675 214.5,113C 212.722,113.704 210.888,114.204 209,114.5C 196.534,108.563 183.7,103.397 170.5,99C 143.246,91.9621 115.579,89.6288 87.5,92C 74.3771,93.6275 61.3771,95.6275 48.5,98C 43.1076,96.1007 40.1076,92.2674 39.5,86.5C 40.0148,83.2573 41.3481,80.4239 43.5,78C 49.1416,75.0856 55.1416,73.0856 61.5,72C 71.6114,70.247 81.6114,68.747 91.5,67.5 Z M 90.5,111.5 C 128.495,108.932 164.162,116.765 197.5,135C 204.425,141.492 204.092,147.492 196.5,153C 194.167,153.667 191.833,153.667 189.5,153C 149.027,130.774 106.36,125.441 61.5,137C 50.65,137.812 46.8167,132.978 50,122.5C 50.8333,121.667 51.6667,120.833 52.5,120C 64.9639,115.677 77.6305,112.843 90.5,111.5 Z M 102.5,152.5 C 131.972,151.867 159.305,159.034 184.5,174C 188.312,180.87 186.479,185.37 179,187.5C 153.447,172.921 125.947,166.755 96.5,169C 84.0273,170.136 71.694,171.803 59.5,174C 52.8425,170.066 52.1758,165.4 57.5,160C 72.3408,155.784 87.3408,153.284 102.5,152.5 Z"/></g>
</svg>
