<?xml version="1.0" encoding="UTF-8"?>
<!DOCTYPE svg PUBLIC "-//W3C//DTD SVG 1.1//EN" "http://www.w3.org/Graphics/SVG/1.1/DTD/svg11.dtd">
<svg xmlns="http://www.w3.org/2000/svg" version="1.1" width="256px" height="256px" style="shape-rendering:geometricPrecision; text-rendering:geometricPrecision; image-rendering:optimizeQuality; fill-rule:evenodd; clip-rule:evenodd" xmlns:xlink="http://www.w3.org/1999/xlink">
<g><path style="opacity:0.972" fill="#fefffe" d="M 132.5,-0.5 C 146.833,-0.5 161.167,-0.5 175.5,-0.5C 179.284,38.9499 200.95,60.2833 240.5,63.5C 240.5,77.5 240.5,91.5 240.5,105.5C 216.928,105.864 195.595,99.1975 176.5,85.5C 175.667,119.162 175.167,152.828 175,186.5C 167.116,225.551 143.616,248.551 104.5,255.5C 98.1667,255.5 91.8333,255.5 85.5,255.5C 50.2711,249.105 27.4378,228.772 17,194.5C 10.3364,160.154 20.8364,132.32 48.5,111C 66.4822,99.17 86.1489,94.67 107.5,97.5C 107.5,111.833 107.5,126.167 107.5,140.5C 83.0458,135.477 66.8791,144.81 59,168.5C 56.6456,190.293 65.8123,204.793 86.5,212C 106.685,215.491 121.185,207.991 130,189.5C 130.822,187.212 131.489,184.878 132,182.5C 132.5,121.501 132.667,60.5009 132.5,-0.5 Z"/></g>
</svg>
