<?xml version="1.0" encoding="UTF-8"?>
<!DOCTYPE svg PUBLIC "-//W3C//DTD SVG 1.1//EN" "http://www.w3.org/Graphics/SVG/1.1/DTD/svg11.dtd">
<svg xmlns="http://www.w3.org/2000/svg" version="1.1" width="256px" height="256px" style="shape-rendering:geometricPrecision; text-rendering:geometricPrecision; image-rendering:optimizeQuality; fill-rule:evenodd; clip-rule:evenodd" xmlns:xlink="http://www.w3.org/1999/xlink">
<g><path style="opacity:0.974" fill="#fefffe" d="M 255.5,48.5 C 255.5,49.5 255.5,50.5 255.5,51.5C 248.567,60.2678 240.733,68.2678 232,75.5C 231.354,122.935 214.187,163.102 180.5,196C 145.245,225.655 104.578,237.322 58.5,231C 37.2161,228.074 17.5494,220.907 -0.5,209.5C -0.5,209.167 -0.5,208.833 -0.5,208.5C 27.0022,210.495 52.0022,203.661 74.5,188C 51.5221,184.528 35.8554,172.028 27.5,150.5C 34.1556,150.878 40.8222,150.378 47.5,149C 22.7203,140.276 10.0536,122.776 9.5,96.5C 15.9711,99.2715 22.6378,101.105 29.5,102C 10.9618,85.0449 5.46175,64.5449 13,40.5C 14.0152,37.7899 15.5152,35.4566 17.5,33.5C 45.9602,65.5638 81.6269,83.5638 124.5,87.5C 121.02,58.2855 132.687,37.7855 159.5,26C 180.105,20.041 198.438,24.041 214.5,38C 219.328,38.6288 223.995,37.9621 228.5,36C 235.282,33.4423 241.949,30.6089 248.5,27.5C 248.833,28 249.167,28.5 249.5,29C 245.466,38.7283 239.466,47.0617 231.5,54C 239.67,53.1146 247.67,51.2813 255.5,48.5 Z"/></g>
</svg>
