<?xml version="1.0" encoding="UTF-8"?>
<!DOCTYPE svg PUBLIC "-//W3C//DTD SVG 1.1//EN" "http://www.w3.org/Graphics/SVG/1.1/DTD/svg11.dtd">
<svg xmlns="http://www.w3.org/2000/svg" version="1.1" width="3138px" height="2199px" style="shape-rendering:geometricPrecision; text-rendering:geometricPrecision; image-rendering:optimizeQuality; fill-rule:evenodd; clip-rule:evenodd" xmlns:xlink="http://www.w3.org/1999/xlink">
<g><path style="opacity:0.999" fill="#fefffe" d="M 3137.5,936.5 C 3137.5,1010.83 3137.5,1085.17 3137.5,1159.5C 3135.79,1233.34 3133.96,1307.34 3132,1381.5C 3128.54,1519.95 3111.21,1656.62 3080,1791.5C 3067.6,1845.69 3050.6,1898.35 3029,1949.5C 3004.54,2004.61 2970.71,2053.11 2927.5,2095C 2894.84,2125.84 2856.5,2146.5 2812.5,2157C 2802.25,2158.99 2791.92,2160.32 2781.5,2161C 2672.51,2168.18 2563.51,2175.18 2454.5,2182C 2330.94,2189.35 2207.28,2193.35 2083.5,2194C 1957,2195.63 1830.67,2197.13 1704.5,2198.5C 1530.17,2198.5 1355.83,2198.5 1181.5,2198.5C 1054.93,2197.88 928.267,2194.71 801.5,2189C 655.447,2181.89 509.447,2173.89 363.5,2165C 301.426,2156.96 248.093,2131.29 203.5,2088C 163.372,2046.62 131.538,1999.45 108,1946.5C 80.1011,1881.91 60.1011,1814.91 48,1745.5C 18.5122,1578.47 2.84551,1410.13 1,1240.5C -0.590584,1123.77 1.40942,1007.11 7,890.5C 10.2985,818.128 14.2985,745.794 19,673.5C 23.7557,582.209 37.0891,492.209 59,403.5C 85.2822,307.618 125.616,218.285 180,135.5C 214.551,91.9488 258.718,62.4488 312.5,47C 345.202,37.6608 378.535,31.9941 412.5,30C 818.426,17.2002 1224.43,7.36684 1630.5,0.5C 1821.17,3.37836 2011.83,6.21169 2202.5,9C 2295.51,10.4968 2388.51,12.4968 2481.5,15C 2586.42,19.6878 2691.09,27.6878 2795.5,39C 2845.76,47.2988 2889.43,68.6322 2926.5,103C 2959.44,134.922 2986.6,171.089 3008,211.5C 3041.43,275.103 3065.76,342.103 3081,412.5C 3109.81,547.017 3127.15,683.017 3133,820.5C 3134.7,859.32 3136.2,897.987 3137.5,936.5 Z M 1254.5,521.5 C 1553.2,714.023 1851.54,907.19 2149.5,1101C 1851.33,1292.58 1553.33,1484.42 1255.5,1676.5C 1254.5,1291.5 1254.17,906.501 1254.5,521.5 Z"/></g>
</svg>
